<?xml version="1.0" encoding="utf-8"?>
<!-- Generator: Adobe Illustrator 19.2.0, SVG Export Plug-In . SVG Version: 6.00 Build 0)  -->
<svg version="1.1" id="Layer_1" xmlns="http://www.w3.org/2000/svg" xmlns:xlink="http://www.w3.org/1999/xlink" x="0px" y="0px"
	 viewBox="0 0 314 314" style="enable-background:new 0 0 314 314;" xml:space="preserve">
<style type="text/css">
	.st0{fill:none;stroke:#F9AA33;stroke-width:5;stroke-linecap:round;stroke-linejoin:round;}
	.st1{fill:none;stroke:#F9AA33;stroke-width:5;stroke-miterlimit:10;}
</style>
<path class="st0" d="M183.6,0.7h-53.1l-26.5,46l26.5,46h53.1l26.5-46L183.6,0.7z"/>
<path class="st1" d="M157,110.7c-16.4,0-31.6,8.8-39.8,23c-8.2,14.2-8.2,31.8,0,46c8.2,14.2,23.4,23,39.8,23s31.6-8.8,39.8-23
	c8.2-14.2,8.2-31.8,0-46C188.6,119.5,173.4,110.7,157,110.7z"/>
<path class="st0" d="M221,46.7c-16.4,0-31.6,8.8-39.8,23c-8.2,14.2-8.2,31.8,0,46c8.2,14.2,23.4,23,39.8,23c16.4,0,31.6-8.8,39.8-23
	c8.2-14.2,8.2-31.8,0-46C252.6,55.5,237.5,46.7,221,46.7L221,46.7z"/>
<path class="st0" d="M92.3,175.4c-16.4,0-31.6,8.8-39.8,23c-8.2,14.2-8.2,31.8,0,46c8.2,14.2,23.4,23,39.8,23
	c16.4,0,31.6-8.8,39.8-23c8.2-14.2,8.2-31.8,0-46C123.9,184.1,108.8,175.4,92.3,175.4L92.3,175.4z"/>
<path class="st0" d="M267,221.4c0-16.4-8.8-31.6-23-39.8c-14.2-8.2-31.8-8.2-46,0c-14.2,8.2-23,23.4-23,39.8
	c0,16.4,8.8,31.6,23,39.8c14.2,8.2,31.8,8.2,46,0C258.2,253,267,237.8,267,221.4L267,221.4z"/>
<g id="XMLID_1_">
	<g>
	</g>
	<g>
		<path class="st1" d="M138.3,92.7c0-16.4-8.8-31.6-23-39.8c-14.2-8.2-31.8-8.2-46,0c-14.2,8.2-23,23.4-23,39.8s8.8,31.6,23,39.8
			c14.2,8.2,31.8,8.2,46,0C129.6,124.3,138.3,109.1,138.3,92.7z"/>
	</g>
</g>
<path class="st0" d="M183.6,220.7h-53.1l-26.5,46l26.5,46h53.1l26.5-46L183.6,220.7z"/>
<path class="st0" d="M313,183.2v-53.1l-46-26.5l-46,26.5v53.1l46,26.5L313,183.2z"/>
<path class="st0" d="M93,183.2v-53.1l-46-26.5L1,130.1v53.1l46,26.5L93,183.2z"/>
</svg>
